<?xml version="1.0" standalone="no"?>
<!DOCTYPE svg PUBLIC "-//W3C//DTD SVG 20010904//EN"
 "http://www.w3.org/TR/2001/REC-SVG-20010904/DTD/svg10.dtd">
<svg version="1.0" xmlns="http://www.w3.org/2000/svg"
 width="64.000000pt" height="64.000000pt" viewBox="0 0 64.000000 64.000000"
 preserveAspectRatio="xMidYMid meet">

<g transform="translate(0.000000,64.000000) scale(0.100000,-0.100000)"
fill="#AB222E" stroke="none">
<path d="M202 608 c-15 -15 -15 -43 -2 -69 10 -17 7 -19 -29 -19 -32 0 -47 -7
-85 -43 -25 -23 -46 -50 -46 -60 0 -9 -4 -17 -9 -17 -16 0 -34 -71 -28 -116
12 -109 93 -166 245 -172 63 -3 92 -8 92 -16 0 -18 43 -56 63 -56 9 0 19 5 22
10 10 17 37 11 62 -12 l24 -23 37 20 c34 19 37 24 34 57 -3 32 0 39 27 53 33
16 38 36 21 79 -6 18 -17 26 -33 26 -29 0 -47 18 -47 47 0 13 -9 28 -20 35
-28 18 -25 38 5 38 16 0 28 7 31 18 11 34 21 47 45 52 21 5 24 12 24 50 0 39
-3 45 -25 50 -16 3 -30 18 -39 38 -13 29 -19 32 -56 32 -37 0 -43 -3 -56 -32
-9 -21 -22 -34 -36 -36 -13 -2 -23 -8 -23 -13 0 -5 -22 -9 -49 -9 -48 0 -50 1
-61 35 -19 59 -59 82 -88 53z m52 -30 c8 -13 17 -33 21 -45 11 -37 -31 -30
-50 8 -26 50 0 83 29 37z m296 0 c0 -16 41 -58 57 -58 8 0 13 -12 13 -30 0
-16 -5 -30 -12 -30 -16 0 -58 -41 -58 -57 0 -22 -48 -15 -61 10 -6 12 -27 36
-45 53 -19 18 -34 36 -34 40 0 5 15 16 33 24 20 9 33 24 35 38 3 18 10 22 38
22 19 0 34 -5 34 -12z m-290 -88 c8 0 38 3 65 5 56 6 91 -8 65 -25 -8 -5 -31
-10 -51 -10 -26 0 -42 -7 -59 -27 l-23 -27 -21 27 c-16 20 -31 27 -56 27 -19
0 -42 5 -50 10 -27 18 9 32 65 25 28 -3 57 -6 65 -5z m187 -62 c19 -21 43 -61
43 -71 0 -3 -9 -7 -20 -10 -11 -3 -24 -17 -30 -31 -10 -27 -16 -29 -62 -26
-21 1 -32 -6 -48 -32 -25 -41 -25 -44 0 -65 40 -35 18 -63 -52 -63 -48 0 -108
96 -108 173 0 14 6 27 13 30 9 3 9 9 1 23 -8 13 -8 28 -2 47 12 32 19 34 43 7
22 -25 43 -25 68 -2 16 14 82 36 123 41 6 0 20 -9 31 -21z m83 -130 c0 -26 37
-68 61 -68 35 0 39 -57 4 -70 -25 -10 -42 -48 -31 -75 3 -9 -4 -21 -20 -31
-23 -16 -26 -16 -48 5 -25 23 -65 28 -84 9 -10 -10 -17 -7 -34 10 -19 19 -21
25 -10 42 17 28 15 43 -9 74 -18 23 -20 31 -10 53 9 20 16 24 37 19 30 -8 74
16 74 39 0 10 11 15 35 15 29 0 35 -4 35 -22z"/>
<path d="M495 516 c-20 -15 -17 -44 7 -59 12 -8 21 -7 32 2 36 30 -1 85 -39
57z m33 -27 c-2 -6 -8 -10 -13 -10 -5 0 -11 4 -13 10 -2 6 4 11 13 11 9 0 15
-5 13 -11z"/>
<path d="M320 355 c-7 -8 -11 -16 -9 -16 2 -1 17 -3 32 -5 22 -2 28 1 25 14
-4 22 -32 27 -48 7z"/>
<path d="M230 333 c0 -10 9 -13 27 -11 37 4 40 25 3 25 -19 0 -30 -5 -30 -14z"/>
<path d="M442 224 c-31 -21 -30 -69 3 -90 25 -16 55 -13 55 5 0 6 -7 8 -15 5
-36 -14 -62 46 -27 65 23 12 52 -4 52 -29 0 -11 5 -20 10 -20 6 0 10 11 10 24
0 24 -32 56 -55 56 -6 0 -21 -7 -33 -16z"/>
</g>
</svg>
