<?xml version="1.0" standalone="no"?>
<!DOCTYPE svg PUBLIC "-//W3C//DTD SVG 20010904//EN"
 "http://www.w3.org/TR/2001/REC-SVG-20010904/DTD/svg10.dtd">
<svg version="1.0" xmlns="http://www.w3.org/2000/svg"
 width="64.000000pt" height="64.000000pt" viewBox="0 0 64.000000 64.000000"
 preserveAspectRatio="xMidYMid meet">

<g transform="translate(0.000000,64.000000) scale(0.100000,-0.100000)"
fill="#AB222E" stroke="#fff">
<path d="M258 628 c-24 -19 -27 -39 -12 -75 l13 -33 -35 0 c-41 0 -104 -24
-104 -40 0 -7 -20 -31 -44 -54 -82 -80 -99 -208 -40 -302 58 -93 213 -141 370
-115 96 16 165 57 201 118 24 41 28 59 27 118 0 71 -17 131 -33 121 -5 -4 -3
-26 5 -53 8 -25 14 -59 14 -75 l0 -28 -205 0 -205 0 0 51 c0 56 18 136 32 145
5 3 20 -6 33 -20 30 -33 59 -33 89 -1 14 15 35 25 52 25 16 1 46 7 66 14 36
13 38 12 65 -15 31 -32 43 -36 43 -15 0 8 -16 27 -35 42 -19 14 -35 33 -35 41
0 20 -67 45 -111 41 -35 -3 -38 -1 -48 33 -22 73 -66 106 -103 77z m76 -69
c19 -47 11 -65 -26 -56 -35 9 -65 99 -35 110 22 8 44 -12 61 -54z m-54 -70
c24 -9 45 -9 86 1 43 10 62 11 94 1 22 -6 40 -16 40 -21 0 -16 -37 -30 -79
-30 -32 0 -46 -6 -70 -32 l-31 -33 -31 33 c-24 26 -38 32 -70 32 -42 0 -79 14
-79 30 0 11 47 28 81 29 14 1 41 -4 59 -10z m60 -369 c9 -16 8 -22 -5 -26 -8
-3 -22 -3 -30 0 -13 4 -14 10 -5 26 14 25 26 25 40 0z m-66 -5 c-9 -22 14 -45
46 -45 32 0 55 23 46 45 -5 13 11 15 106 15 l111 0 -24 -26 c-37 -39 -93 -64
-167 -73 -78 -10 -92 -4 -127 47 -30 44 -31 52 -5 52 13 0 18 -5 14 -15z"/>
<path d="M234 337 c-8 -21 2 -35 16 -21 5 5 6 15 0 24 -8 12 -10 12 -16 -3z"/>
<path d="M387 336 c-6 -15 1 -26 15 -26 11 0 10 27 -1 34 -5 3 -11 0 -14 -8z"/>
<path d="M293 316 c2 -6 14 -11 27 -11 13 0 25 5 27 11 2 6 -10 11 -27 11 -17
0 -29 -5 -27 -11z"/>
<path d="M260 245 c0 -8 5 -15 10 -15 6 0 10 7 10 15 0 8 -4 15 -10 15 -5 0
-10 -7 -10 -15z"/>
<path d="M360 245 c0 -8 5 -15 10 -15 6 0 10 7 10 15 0 8 -4 15 -10 15 -5 0
-10 -7 -10 -15z"/>
<path d="M460 245 c0 -8 5 -15 10 -15 6 0 10 7 10 15 0 8 -4 15 -10 15 -5 0
-10 -7 -10 -15z"/>
<path d="M560 245 c0 -8 5 -15 10 -15 6 0 10 7 10 15 0 8 -4 15 -10 15 -5 0
-10 -7 -10 -15z"/>
</g>
</svg>
