<?xml version="1.0" standalone="no"?>
<!DOCTYPE svg PUBLIC "-//W3C//DTD SVG 20010904//EN"
 "http://www.w3.org/TR/2001/REC-SVG-20010904/DTD/svg10.dtd">
<svg version="1.0" xmlns="http://www.w3.org/2000/svg"
 width="64.000000pt" height="64.000000pt" viewBox="0 0 64.000000 64.000000"
 preserveAspectRatio="xMidYMid meet">

<g transform="translate(0.000000,64.000000) scale(0.100000,-0.100000)"
fill="#AB222E" stroke="none">
<path d="M225 620 c-17 -18 -17 -32 0 -72 6 -15 2 -18 -28 -18 -36 0 -87 -17
-87 -30 0 -3 -19 -27 -43 -51 -64 -67 -84 -159 -51 -237 19 -45 62 -92 85 -92
10 0 19 -5 21 -11 5 -16 103 -39 164 -39 36 0 56 -5 65 -17 20 -23 89 -53 124
-53 47 0 112 35 135 72 39 65 38 129 -5 192 -13 20 -27 51 -31 70 -3 19 -13
43 -20 53 -13 16 -14 14 -9 -23 l6 -40 -63 4 c-54 3 -68 0 -98 -20 -19 -13
-45 -39 -58 -58 -20 -30 -23 -44 -20 -98 4 -58 3 -63 -16 -60 -26 4 -82 78
-96 126 -13 49 -13 122 1 122 7 0 9 10 5 26 -8 29 1 64 14 64 5 0 20 -11 34
-25 31 -31 41 -31 69 -1 13 14 40 26 67 31 25 4 53 11 62 16 12 6 25 2 47 -17
51 -43 36 -4 -19 48 -46 44 -55 48 -99 48 -45 0 -49 2 -54 28 -7 37 -44 82
-66 82 -10 0 -26 -9 -36 -20z m65 -32 c27 -45 26 -68 -3 -68 -30 0 -64 64 -46
86 17 21 27 17 49 -18z m0 -88 c14 0 48 2 75 5 36 5 56 2 70 -9 26 -19 16 -27
-42 -33 -33 -4 -57 -14 -75 -31 l-28 -26 -28 27 c-17 17 -39 27 -58 27 -44 0
-74 11 -74 25 0 19 26 24 85 19 28 -2 61 -4 75 -4z m251 -269 c21 -22 29 -39
29 -66 0 -51 -44 -95 -95 -95 -46 0 -95 45 -95 87 1 91 99 136 161 74z"/>
<path d="M471 192 c-1 -35 22 -53 42 -33 8 8 7 11 -4 11 -8 0 -20 12 -26 28
l-11 27 -1 -33z"/>
<path d="M262 361 c-18 -11 -11 -51 11 -65 22 -14 51 3 55 34 4 23 -12 40 -38
40 -8 0 -21 -4 -28 -9z"/>
<path d="M370 354 c0 -17 22 -14 28 4 2 7 -3 12 -12 12 -9 0 -16 -7 -16 -16z"/>
</g>
</svg>
